<svg width="40.932" height="28.096" viewBox="0 0 10.83 7.434" xmlns="http://www.w3.org/2000/svg"><path d="M8.869.004v1.643h1.958v.74H8.87v3.141c0 .472.064.775.191.91.131.134.395.201.79.201h.978v.796H9.85c-.734 0-1.24-.136-1.52-.408-.278-.276-.418-.775-.418-1.499.004-2.875 0-3.023 0-5.524z" aria-label="t"/><path d="M-.003.276Q.336.191.886.096q.56-.095 1.291-.095.53 0 .89.148.359.138.602.413.075-.053.233-.148.159-.096.392-.18.233-.096.518-.16.286-.073.614-.073.635 0 1.037.19.403.18.625.519.233.339.307.804.084.466.084 1.016v3.09h-.984V2.743q0-.487-.053-.836-.042-.35-.18-.582-.127-.233-.36-.339Q5.68.869 5.32.869q-.497 0-.825.137-.318.127-.434.233.085.275.127.603.042.328.042.688v3.09h-.984V2.742q0-.487-.053-.836t-.19-.582q-.127-.233-.36-.34Q2.42.87 2.07.87q-.148 0-.317.01-.17.01-.328.032-.148.01-.275.032T.98.974V5.62h-.984z" aria-label="m"/><g stroke-width=".045" aria-label="{CODES}"><path d="M.193 6.591q.063.04.086.11.023.071.008.16l-.034.198q-.014.081-.019.128-.004.046.01.07.012.026.047.035.035.01.101.016l-.02.112q-.1-.002-.158-.023-.057-.02-.084-.062-.027-.041-.028-.107 0-.064.016-.155l.034-.189q.018-.105-.01-.162-.028-.057-.108-.076l.019-.11q.09-.023.138-.082.049-.06.065-.157l.033-.19q.016-.09.039-.154.023-.065.064-.107.041-.042.106-.062.066-.02.166-.022l-.018.111q-.057.006-.094.013-.037.006-.06.023-.023.016-.037.046-.013.03-.022.081l-.05.284q-.017.1-.069.167-.05.067-.121.104zM1.8 6.361q-.018-.063-.056-.114-.037-.05-.09-.086-.05-.036-.115-.055-.063-.02-.135-.02-.077 0-.152.021-.074.02-.14.059-.067.037-.123.09-.055.052-.097.116-.04.065-.063.139-.023.073-.023.152 0 .09.03.169.032.078.088.136.056.057.133.09.077.032.17.032.071 0 .142-.018.07-.02.134-.055.065-.035.12-.085.055-.052.096-.115h.144q-.05.093-.124.166-.073.074-.16.125-.088.05-.184.077-.096.027-.19.027-.119 0-.219-.042-.098-.041-.17-.113t-.11-.17q-.04-.098-.04-.21 0-.098.029-.188.03-.091.081-.17.052-.08.122-.145.072-.065.156-.112.085-.046.179-.072.094-.025.192-.025.093 0 .18.026.087.027.156.078.07.05.118.124.049.073.065.168zM2.072 6.676q0-.097.028-.188.03-.09.08-.17.051-.079.122-.144.07-.065.154-.112.084-.046.177-.072.094-.025.192-.025.119 0 .218.041.1.041.173.114.073.07.113.169.042.097.042.21 0 .098-.03.188-.028.091-.079.17-.05.079-.121.144-.07.065-.154.113-.084.046-.178.072-.094.025-.192.025-.119 0-.22-.041-.099-.041-.172-.114-.072-.072-.113-.17-.04-.097-.04-.21zm.14-.013q0 .09.03.169.033.077.088.135.055.058.133.09t.17.033q.076 0 .15-.02.075-.022.141-.059.067-.037.124-.09.056-.053.096-.116.042-.065.065-.138.023-.074.023-.153 0-.09-.032-.17-.031-.077-.087-.135-.056-.058-.133-.09t-.17-.033q-.077 0-.152.021-.074.02-.14.058-.067.037-.123.09-.055.053-.097.117-.04.065-.063.138-.023.074-.023.153zM3.963 7.066q.136 0 .245-.041t.183-.116q.076-.075.115-.178.04-.105.04-.231 0-.085-.025-.156-.024-.071-.076-.122-.051-.052-.13-.08-.077-.03-.184-.03h-.293l-.168.954zm-.242-1.075h.436q.12 0 .217.033.099.033.168.096.07.063.108.155.039.09.039.207 0 .152-.052.281-.05.129-.147.224-.095.094-.232.148-.137.053-.31.053H3.51zM5.038 5.991h.789l-.021.123h-.65l-.076.421h.566l-.022.122h-.566l-.072.409h.659l-.021.122h-.797zM5.971 6.844q-.009.048.008.093.017.044.053.079.037.034.09.054.055.02.121.02.094 0 .167-.017.073-.018.124-.051.05-.034.075-.083.027-.05.027-.113 0-.05-.024-.085t-.066-.059q-.041-.024-.098-.038-.055-.015-.12-.026l-.08-.013q-.043-.008-.084-.019-.04-.012-.079-.03-.037-.018-.066-.044-.028-.026-.044-.062-.017-.037-.017-.088 0-.047.011-.095.012-.048.036-.092t.065-.083q.04-.039.096-.067.057-.028.132-.044.074-.017.17-.017.095 0 .166.026.072.025.118.07.046.044.064.106.019.062.006.136h-.14q.01-.049-.004-.088-.012-.04-.044-.067-.032-.028-.081-.043-.048-.016-.112-.016-.098 0-.164.023t-.105.06q-.04.036-.057.08-.015.043-.015.083 0 .044.022.074t.064.05q.041.02.098.032t.124.02l.087.018q.044.01.085.025.042.015.078.037.036.02.062.05.028.03.043.071.015.04.015.093 0 .095-.037.17t-.11.129q-.071.053-.174.082-.102.028-.232.028-.107 0-.186-.033-.08-.032-.13-.084-.049-.052-.07-.118-.019-.066-.006-.134zM7.286 6.591q-.057-.037-.085-.104-.029-.068-.011-.167l.05-.284q.009-.05.006-.08-.001-.03-.019-.047t-.052-.023q-.033-.007-.088-.013l.02-.111q.099.001.157.022.058.02.085.062.027.042.027.107 0 .064-.016.155l-.034.189q-.018.097.01.157.027.06.109.082l-.02.11q-.086.019-.135.076-.05.057-.067.162l-.034.19q-.016.09-.039.154-.022.066-.064.107-.041.041-.106.062-.065.02-.165.023l.018-.112.077-.01q.032-.004.054-.014T7 7.257q.014-.015.024-.042.01-.025.018-.063l.018-.093.035-.198q.016-.089.064-.16.049-.07.127-.11z"/></g></svg>